<?xml version="1.0" ?><svg enable-background="new 0 0 64 64" id="O" version="1.1" viewBox="0 0 64 64" xml:space="preserve" xmlns="http://www.w3.org/2000/svg" xmlns:xlink="http://www.w3.org/1999/xlink"><g><path d="M63.7,18.3l-1.2-1.2c-1.9-1.9-4.4-3-7.1-3.1l-3.7-3.7C51.5,10.1,51.3,10,51,10H11.7L7.9,0.6C7.8,0.2,7.4,0,7,0H3   C2.4,0,2,0.4,2,1v9H1c-0.6,0-1,0.4-1,1v6c0,0.4,0.2,0.8,0.6,0.9l14,6C14.7,24,14.9,24,15,24h40c2.8,0,5.5-1.1,7.5-3.1l1.2-1.2   C64.1,19.3,64.1,18.7,63.7,18.3z M52.6,14H49c-0.6,0-1-0.4-1-1v-1h2.6L52.6,14z M4,2h2.3l3.2,8H4V2z M2,16.3V12h44v1   c0,1.7,1.3,3,3,3h5v6H37v-2h2c1.7,0,3-1.3,3-3s-1.3-3-3-3H23c-0.6,0-1,0.4-1,1c0,2.4,1.7,4.4,4,4.9V22H15.2L2,16.3z M24.2,16H39   c0.6,0,1,0.4,1,1s-0.4,1-1,1H27C25.7,18,24.6,17.2,24.2,16z M28,22v-2h7v2H28z M61.1,19.5c-1.4,1.4-3.2,2.3-5.1,2.5v-5.9   c1.9,0.2,3.7,1.1,5.1,2.5l0.5,0.5L61.1,19.5z"/><path d="M44.6,28.2C42.4,26.8,40,26,37.4,26H29c-0.6,0-1,0.4-1,1v4c0,0.6,0.4,1,1,1h8.4c2.6,0,5-0.8,7.2-2.2   c0.3-0.2,0.4-0.5,0.4-0.8S44.8,28.4,44.6,28.2z M30,28h2v2h-2V28z M37.4,30H34v-2h3.4c1.6,0,3.1,0.3,4.6,1C40.5,29.7,39,30,37.4,30   z"/><path d="M24,39c0,0.6,0.4,1,1,1h8.4c2.6,0,5-0.8,7.2-2.2c0.3-0.2,0.4-0.5,0.4-0.8s-0.2-0.6-0.4-0.8C38.4,34.8,36,34,33.4,34H25   c-0.6,0-1,0.4-1,1V39z M38,37c-1.4,0.7-3,1-4.6,1H30v-2h3.4C35,36,36.5,36.3,38,37z M26,36h2v2h-2V36z"/><path d="M44.6,44.2C42.4,42.8,40,42,37.4,42H29c-0.6,0-1,0.4-1,1v4c0,0.6,0.4,1,1,1h8.4c2.6,0,5-0.8,7.2-2.2   c0.3-0.2,0.4-0.5,0.4-0.8S44.8,44.4,44.6,44.2z M30,44h2v2h-2V44z M37.4,46H34v-2h3.4c1.6,0,3.1,0.3,4.6,1C40.5,45.7,39,46,37.4,46   z"/><path d="M33.4,56c2.6,0,5-0.8,7.2-2.2c0.3-0.2,0.4-0.5,0.4-0.8s-0.2-0.6-0.4-0.8C38.4,50.8,36,50,33.4,50H25c-0.6,0-1,0.4-1,1v4   c0,0.6,0.4,1,1,1H33.4z M38,53c-1.4,0.7-3,1-4.6,1H30v-2h3.4C35,52,36.5,52.3,38,53z M26,52h2v2h-2V52z"/><path d="M44.6,60.2C42.4,58.8,40,58,37.4,58H29c-0.6,0-1,0.4-1,1v4c0,0.6,0.4,1,1,1h8.4c2.6,0,5-0.8,7.2-2.2   c0.3-0.2,0.4-0.5,0.4-0.8S44.8,60.4,44.6,60.2z M30,60h2v2h-2V60z M37.4,62H34v-2h3.4c1.6,0,3.1,0.3,4.6,1C40.5,61.7,39,62,37.4,62   z"/><path d="M13,14H5c-0.6,0-1,0.4-1,1s0.4,1,1,1h8c0.6,0,1-0.4,1-1S13.6,14,13,14z"/><path d="M25,32c0.6,0,1-0.4,1-1v-4c0-0.6-0.4-1-1-1s-1,0.4-1,1v4C24,31.6,24.4,32,25,32z"/><path d="M21,28c-0.6,0-1,0.4-1,1v6c0,0.6,0.4,1,1,1s1-0.4,1-1v-6C22,28.4,21.6,28,21,28z"/><path d="M17,26c-0.6,0-1,0.4-1,1v4c0,0.6,0.4,1,1,1s1-0.4,1-1v-4C18,26.4,17.6,26,17,26z"/><circle cx="21" cy="39" r="1"/><path d="M52,26c-0.6,0-1,0.4-1,1v10c0,0.6,0.4,1,1,1s1-0.4,1-1V27C53,26.4,52.6,26,52,26z"/><path d="M48,26c-0.6,0-1,0.4-1,1v14c0,0.6,0.4,1,1,1s1-0.4,1-1V27C49,26.4,48.6,26,48,26z"/><path d="M44,32c-0.6,0-1,0.4-1,1v4c0,0.6,0.4,1,1,1s1-0.4,1-1v-4C45,32.4,44.6,32,44,32z"/><circle cx="48" cy="45" r="1"/></g></svg>