<?xml version="1.0" ?><svg style="enable-background:new 0 0 64 64;" version="1.1" viewBox="0 0 64 64" xml:space="preserve" xmlns="http://www.w3.org/2000/svg" xmlns:xlink="http://www.w3.org/1999/xlink"><style type="text/css">
	.st0{fill:none;stroke:#000000;stroke-width:2;stroke-linecap:round;stroke-linejoin:round;stroke-miterlimit:10;}
	.st1{fill:none;stroke:#000000;stroke-width:2;stroke-linecap:round;stroke-linejoin:round;}
</style><g id="guides"/><g id="_x32_5._checking"/><g id="_x32_4._faucet"/><g id="_x32_3._drink"/><g id="_x32_2._hotel_key"/><g id="_x32_1._rating"><rect class="st1" height="37" width="24" x="20" y="23"/><rect class="st1" height="4" width="32" x="16" y="19"/><rect class="st1" height="12" width="8" x="28" y="48"/><rect class="st1" height="7" width="6" x="24" y="32"/><rect class="st1" height="7" width="6" x="34" y="32"/><line class="st1" x1="8" x2="56" y1="60" y2="60"/><polygon class="st1" points="52.5999756,44 54,44 51,39 48,44 49.4000244,44 48,48 49.4000244,48 48,52 54,52 52.5999756,48 54,48     "/><line class="st1" x1="51" x2="51" y1="52" y2="60"/><line class="st1" x1="13" x2="13" y1="60" y2="53"/><circle class="st1" cx="13" cy="49" r="4"/><polygon class="st1" points="32,6.7957425 33.2355995,9.2993422 35.9984856,9.7008133 33.9992447,11.6495934 34.471199,14.4013157    32,13.102129 29.5287991,14.4013157 30.0007572,11.6495934 28.0015144,9.7008133 30.7644005,9.2993422  "/><polygon class="st1" points="43,6.7957425 44.2355995,9.2993422 46.9984856,9.7008133 44.9992447,11.6495934 45.471199,14.4013157    43,13.102129 40.528801,14.4013157 41.0007553,11.6495934 39.0015144,9.7008133 41.7644005,9.2993422  "/><polygon class="st1" points="54,6.7957425 55.2355995,9.2993422 57.9984856,9.7008133 55.9992447,11.6495934 56.471199,14.4013157    54,13.102129 51.528801,14.4013157 52.0007553,11.6495934 50.0015144,9.7008133 52.7644005,9.2993422  "/><polygon class="st1" points="21,6.7957425 22.2355995,9.2993422 24.9984856,9.7008133 22.9992428,11.6495934    23.4712009,14.4013157 21,13.102129 18.5287991,14.4013157 19.0007572,11.6495934 17.0015144,9.7008133 19.7644005,9.2993422  "/><polygon class="st1" points="10,6.7957425 11.2356005,9.2993422 13.9984865,9.7008133 11.9992428,11.6495934    12.4712009,14.4013157 10,13.102129 7.5287995,14.4013157 8.0007572,11.6495934 6.0015135,9.7008133 8.7643995,9.2993422  "/></g><g id="_x32_0._map"/><g id="_x31_9._wifi"/><g id="_x31_8._swimming_pool"/><g id="_x31_7._booking"/><g id="_x31_6._pasport"/><g id="_x31_5._coffee_cup"/><g id="_x31_4._bathtub"/><g id="_x31_3._bedroom"/><g id="_x31_2._air_conditioner"/><g id="_x31_1._breakfast"/><g id="_x31_0._parking_lot"/><g id="_x39_._room_service"/><g id="_x38_._elevator"/><g id="_x37_._reception"/><g id="_x36_._relax"/><g id="_x35_._car_rental"/><g id="_x34_._rental"/><g id="_x33_._smoking_area"/><g id="_x32_._exercise"/><g id="_x31_._luggage"/></svg>