<?xml version="1.0" encoding="iso-8859-1"?>
<!-- Generator: Adobe Illustrator 16.0.0, SVG Export Plug-In . SVG Version: 6.00 Build 0)  -->
<!DOCTYPE svg PUBLIC "-//W3C//DTD SVG 1.1//EN" "http://www.w3.org/Graphics/SVG/1.1/DTD/svg11.dtd">
<svg version="1.1" id="Capa_1" xmlns="http://www.w3.org/2000/svg" xmlns:xlink="http://www.w3.org/1999/xlink" x="0px" y="0px"
	 width="627.412px" height="627.412px" viewBox="0 0 627.412 627.412" style="enable-background:new 0 0 627.412 627.412;"
	 xml:space="preserve">
<g>
	<path d="M566.712,351.809l-21.465-2.201l-113.011-185.62L409.351,42.633c-0.042-0.228-0.093-0.447-0.156-0.671
		C408.727,40.246,397.363,0,369.214,0c-6.057,0-12.27,1.919-18.465,5.702c-22.945,14.003-44.173,57.442-48.868,87.658
		c-0.173,1.092-15.319,101.8,24.155,168.838c-49.896-6.731-146.901-26.968-170.799-32.667c-8.967-2.139-22.489-4.981-36.294-4.981
		c-26.302,0-44.771,10.072-54.898,29.938c-6.563,12.876-5.745,24.885-4.344,36.083c0.662,5.297,2.265,9.849,4.445,13.817
		c-23.805,1.231-49.816,17.496-54.009,44.018c-1.687,10.691-2.429,16.213-2.429,24.23c0.013,20.527,11.295,38.576,30.237,49.584
		c-6.824,8.883-9.52,20.527-9.929,22.451c-1.48,6.947-1.679,11.586-1.873,16.074c-0.055,1.223-0.105,2.459-0.19,3.771
		c-1.388,21.822,20.971,46.492,44.388,49.057c-1.173,2.357-2.299,5.119-3.383,8.439c-3.674,11.262-2.847,19.57-2.543,22.658
		c2.058,21.699,18.554,45.02,46.113,47.613c28.984,2.721,62.187,9.094,97.342,15.848c49.356,9.477,100.392,19.279,143.105,19.279
		c4.711,0,9.3-0.123,13.645-0.363c31.911-1.775,54.696-8.504,76.726-15.012c23.826-7.035,46.336-13.678,79.273-13.678
		c7.259,0,14.922,0.328,22.775,0.982c3.868,0.32,7.555,0.486,10.941,0.486l0,0c48.133,0,51.187-31.68,55.797-79.629
		c0.375-3.893,0.764-7.941,1.147-11.801l5.841-41.043C622.977,409.977,623.521,357.963,566.712,351.809z M600.391,465.305
		l-5.842,41.049c-0.43,4.23-0.822,8.305-1.197,12.223c-4.809,49.973-7.588,64.375-39.007,64.375c-2.923,0-6.137-0.143-9.54-0.43
		c-8.317-0.691-16.449-1.041-24.177-1.041c-35.374,0-60.12,7.305-84.052,14.369c-21.105,6.234-42.933,12.68-72.883,14.34
		c-4.037,0.225-8.313,0.338-12.713,0.338c-41.111,0-91.344-9.65-139.92-18.98c-35.564-6.828-69.155-13.277-98.945-16.072
		c-19.288-1.818-29.533-18.074-30.891-32.385c0-0.021-0.042-0.439-0.046-0.459c-0.203-2.051-0.747-7.508,1.831-15.396
		c2.851-8.738,5.454-11.016,9.055-14.166c2.527-2.211,3.501-5.711,2.48-8.912c-1.021-3.203-3.847-5.488-7.188-5.83l-15.044-1.518
		c-14.623-1.502-30.343-18.141-29.512-31.229c0.089-1.43,0.148-2.775,0.207-4.117c0.177-4.137,0.333-7.715,1.518-13.281
		c1.801-8.457,7.12-18.547,11.54-19.389c3.758-0.719,6.563-3.873,6.837-7.686c0.27-3.812-2.054-7.33-5.668-8.574
		c-20.439-7.031-32.642-21.949-32.654-39.9c0-6.875,0.612-11.381,2.223-21.592c2.957-18.689,22.772-29.854,40.221-29.854
		c1.362,0,2.721,0.068,4.062,0.203l12.303,1.252c3.741,0.443,7.254-1.736,8.667-5.205c1.413-3.466,0.371-7.452-2.556-9.78
		c-8.642-6.883-12.185-12.075-13.066-19.169c-1.16-9.296-1.768-17.698,2.636-26.332c7.111-13.948,20.152-20.726,39.871-20.726
		c12.033,0,24.244,2.577,32.38,4.517c24.573,5.863,149.617,32.152,191.491,35.05c3.337,0.203,6.508-1.539,8.061-4.513
		c1.552-2.969,1.193-6.584-0.907-9.195c-40.001-49.665-36.243-140.503-31.418-171.322c4.407-28.348,24.708-65.924,40.988-75.856
		c3.514-2.151,6.77-3.239,9.68-3.239c12.493,0,21.354,21.337,23.628,29.25l23.101,122.501c0.186,1,0.557,1.957,1.084,2.826
		l115.989,190.513c1.375,2.252,3.72,3.738,6.344,4.004l25.581,2.623C603.035,372.713,606.713,403.174,600.391,465.305z"/>
</g>
<g>
</g>
<g>
</g>
<g>
</g>
<g>
</g>
<g>
</g>
<g>
</g>
<g>
</g>
<g>
</g>
<g>
</g>
<g>
</g>
<g>
</g>
<g>
</g>
<g>
</g>
<g>
</g>
<g>
</g>
</svg>
